# xmcd
#
# Track frame offsets:
#	150
#	9937
#	19380
#	28771
#	45415
#	54754
#	64208
#	73546
#	83041
#	92354
#	101789
#	111313
#	120756
#	126989
#	136380
#	145615
#	155148
#	164461
#
# Disc length: 2314 seconds
#
# Revision: 2
# Processed by: cddbd v1.5.2PL0 Copyright (c) Steve Scherf et al.
# Submitted via: EasyCDDAExtractor 12.0.1.1
#
DISCID=e9090812
DTITLE=Gold Star Ballroom - Paso Doble
DYEAR=2003
DGENRE=Dance
TTITLE0=PD 60 - El Gatos Mondes
TTITLE1=PD 60 - Espana Cani
TTITLE2=PD 60 - Rosamunde
TTITLE3=PD 61 - Y Viva Espana
TTITLE4=PD 60 - Valencia
TTITLE5=PD 60 - Pepito Greus
TTITLE6=PD 60 - Sombreros and Mantillas
TTITLE7=PD 60 - El Pelicaro
TTITLE8=PD 60 - A Night In Cadiz
TTITLE9=PD 60 - Un Paso Mas
TTITLE10=PD 60 - On Her Majesty's Secret Service
TTITLE11=PD 60 - Paso Royale
TTITLE12=PD 60 - Spanish Gipsy Dance
TTITLE13=PD 60 - Paso Doble Rhythm
TTITLE14=PD 61 - Donn Juan
TTITLE15=PD 60 - Paso Cordoba
TTITLE16=PD 61 - Thunderbirds Theme
TTITLE17=PD 61 - Disco La Passione
EXTD=YEAR: 2003
EXTT0=
EXTT1=
EXTT2=
EXTT3=
EXTT4=
EXTT5=
EXTT6=
EXTT7=
EXTT8=
EXTT9=
EXTT10=
EXTT11=
EXTT12=
EXTT13=
EXTT14=
EXTT15=
EXTT16=
EXTT17=
PLAYORDER=
